<?xml version="1.0" encoding="utf-8" ?><svg xmlns="http://www.w3.org/2000/svg" xmlns:xlink="http://www.w3.org/1999/xlink" width="1026" height="1026" viewBox="0 0 1026 1026"><path fill="white" transform="scale(1.00233 1.00233)" d="M0 0L1024 0L1024 1024L0 1024L0 0Z"/><path transform="scale(1.00233 1.00233)" d="M371.973 508.187C365.278 493.072 356.832 476.249 349.59 461.328C337.388 435.863 325.03 410.473 312.517 385.159L214.126 183.055L179.096 111.035C177.269 107.287 167.155 87.3798 166.668 85.2434L167.204 85.0222C169.873 88.4999 177.175 104.96 179.533 109.76L216.005 184.743L330.664 419.87C344.556 448.311 358.458 479.037 372.679 506.965C386.531 480.09 399.497 452.935 413.813 426.318C412.872 424.37 411.775 422.37 411.744 420.215C412.47 421.712 412.877 422.701 413.9 424.043C415.309 423.638 414.691 422.742 416.306 421.14C416.953 424.204 414.131 424.29 416.295 430.348L415.896 430.489L414.469 428.649L413.785 428.774C410.935 432.766 403.712 447.787 401.174 452.811C391.971 471.476 382.617 490.065 373.111 508.577L375.505 516.087C379.231 516.124 380.436 516.132 384.09 515.48C396.116 491.034 409.043 466.653 420.821 442.102C420.027 440.297 418.644 437.263 418.67 435.362C419.913 436.658 420.591 439.003 421.258 440.752C423.061 437.502 424.758 433.924 426.416 430.574C425.452 428.313 424.467 426.062 423.462 423.819L423.525 423.049L423.048 422.409C423.074 422.402 423.1 422.395 423.125 422.388L423.416 423.311L423.919 423.431C424.944 424.993 426.209 427.51 427.137 429.216L487.703 308.594C500.394 283.781 513.827 259.159 525.726 233.822C528.813 227.233 533.249 218.192 535.194 211.311C534.524 210.038 534.475 210.126 534.499 208.71C535.892 207.12 536.261 205.649 537.004 203.671L537.395 203.781C536.929 205.692 536.956 206.175 537.206 208.135C539.833 206.409 540.584 203.228 541.677 200.263C543.672 194.801 542.089 184.527 541.461 178.518C541.495 177.469 541.182 175.946 541.014 174.858C540.999 173.876 541.175 172.255 541.252 171.223C540.103 171.307 539.938 171.397 538.857 171.782L538.659 171.141C539.914 170.434 540.44 170.278 541.341 169.163C540.663 167.832 538.598 167.593 536.721 166.934L537.353 166.462C538.894 166.628 538.644 166.683 540.141 166.512C541.44 164.058 538.729 158.782 538.072 155.601C538.97 157.879 541.138 164.156 542.93 165.557L544.536 164.505L544.971 165.187L544.406 166.529L544.782 167.234C547.209 167.804 547.97 167.751 550.515 167.788C548.603 168.143 544.661 168.677 543.137 169.481C543.716 171.099 543.184 170.6 544.468 171.306C545.477 170.711 545.175 171.021 545.824 170.067C548.013 172.073 549.504 177.88 552.026 180.421C552.787 179.682 552.654 179.832 553.245 179C553.527 180.4 552.549 182.692 552.933 183.486C557.453 192.83 562.193 202.093 566.875 211.364C578.004 233.418 588.896 255.591 599.549 277.879C614.179 309.242 627.143 341.356 638.386 374.086C639.322 374.308 638.88 374.286 639.706 374.216C640.126 381.974 641.41 383.182 643.783 390.309L652.302 416.384C658.644 435.902 663.979 456.069 669.316 475.897C670.295 479.532 672.065 488.654 673.703 491.371L674.853 491.5C673.874 493.823 673.374 493.835 673.883 495.724C674.985 496.898 676.5 498.112 678.212 497.975L679.443 497.464C680.852 498.654 683.519 500.69 684.454 502.155L684.659 503.034C679.803 511.989 673.962 522.026 669.425 530.921C669.105 531.66 668.828 532.414 668.416 533.089L667.816 534.031L667.241 534.963C654.432 557.498 642.833 581.553 631.369 604.829L595.243 677.541C579.992 708.246 564.954 739.056 550.131 769.969L533.04 805.109C531.222 808.86 524.71 820.235 525.427 823.23L524.813 823.435L523.946 823.499C523.212 824.765 518.463 834.831 518.575 834.718L518.163 833.333C516.61 834.96 516.411 835.219 515.445 837.245C515.608 841.489 519.75 848.726 521.281 853.182L520.414 853.523C518.691 850.315 516.991 847.096 515.313 843.864C515.326 842.731 514.206 841.446 513.355 840.782L512.779 841.42L511.773 841.35C513.244 837.574 511.987 836.59 510.27 833.133C508.234 836.412 506.589 839.676 504.41 843.122C505.204 840.099 508.441 834.861 510.111 832.179L506.298 823.748C505.092 821.507 503.472 818.638 503.232 816.154L503.377 815.384C501.863 813.844 500.356 814.3 498.197 812.599C499.53 811.758 499.847 811.731 500.596 810.345C500.195 808.928 500.105 809.299 500.27 807.968C501.333 809.387 501.987 811.249 502.718 812.921C503.642 808.609 504.267 804.223 504.942 799.864C500.84 797.735 498.17 796.522 493.867 794.836C495.217 797.908 496.604 800.965 498.027 804.004L497.816 804.501C493.728 799.124 496.348 796.289 488.449 791.427C489.384 789.405 489.748 788.894 490.006 786.738C485.933 782.505 482.833 773.663 481.117 768.196C479.367 767.017 475.596 765.107 473.587 764.025C474.82 762.482 475.7 761.741 477.174 760.401L477.88 759.268C481.175 755.305 483.836 750.861 486.318 746.364L479.336 743.663C478.379 745.205 477.626 746.773 476.134 747.743C476.256 746.311 477.782 744.662 478.729 743.412C476.931 742.707 475.124 742.028 473.306 741.376C471.314 741.83 469.755 743.74 468.005 745.288C468.547 742.355 468.487 741.838 467.261 739.119C465.637 737.665 465.295 736.822 465.377 734.758C465.926 734.382 466.398 733.979 466.888 733.531L464.769 729.125L463.838 731.032C460.948 728.455 459.308 724.127 458.175 720.514C458.35 719.431 458.259 719.927 459.508 718.904L450.058 698.874L448.738 699.767C446.591 698.037 444.416 693.026 443.243 690.469L443.546 689.949L444.906 688.531C439.445 677.209 433.104 665.998 428.325 654.395C427.919 653.408 428.358 654.035 427.217 653.205C427.073 654.775 427.399 654.743 426.658 655.464C425.704 653.437 425.451 652.979 424.961 650.833L425.49 650.729L424.931 650.829L424.917 651.105L426.067 650.991L426.226 650.679C424.46 645.758 418.195 633.733 415.583 628.751L414.74 629.854L414.437 630.136C413.03 628.353 410.896 623.384 410.264 621.188L410.583 621.275L411.796 620.804C410.203 616.616 406.343 609.177 404.296 604.925L386.787 568.926L385.398 569.276C384.116 567.473 380.165 561.566 380.467 559.612L382.344 559.763C381.151 556.568 376.009 546.681 373.835 544.334L373.108 544.499L371.982 544.28C373.151 540.747 370.204 536.31 367.828 533.767L366.533 533.889L366.249 533.427C367.093 531.96 367.094 532.082 367.029 530.401L366.602 530.541C365.94 529.075 365.325 527.736 364.597 526.302L364.13 525.866C364.219 523.653 357.042 510.171 355.522 507.1L324.991 445.256L197.41 186.886L170.358 132.256C168.596 128.708 160.825 114.018 160.077 110.773C165.527 118.94 176.903 143.284 181.586 152.715L223.434 237.388L361.1 515.982C362.208 516.313 362.391 516.271 363.367 516.839L362.642 517.963C362.491 519.524 364.138 521.78 365.005 523.269C369.585 515.476 369.248 514.5 364.557 506.795C366.499 508.704 368.006 511.447 369.477 513.798L371.973 508.187Z"/><path fill="white" transform="scale(1.00233 1.00233)" d="M371.973 508.187C365.278 493.072 356.832 476.249 349.59 461.328C337.388 435.863 325.03 410.473 312.517 385.159L214.126 183.055L179.096 111.035C177.269 107.287 167.155 87.3798 166.668 85.2434L167.204 85.0222C169.873 88.4999 177.175 104.96 179.533 109.76L216.005 184.743L330.664 419.87C344.556 448.311 358.458 479.037 372.679 506.965C386.531 480.09 399.497 452.935 413.813 426.318C412.872 424.37 411.775 422.37 411.744 420.215C412.47 421.712 412.877 422.701 413.9 424.043C415.309 423.638 414.691 422.742 416.306 421.14C416.953 424.204 414.131 424.29 416.295 430.348L415.896 430.489L414.469 428.649L413.785 428.774C410.935 432.766 403.712 447.787 401.174 452.811C391.971 471.476 382.617 490.065 373.111 508.577L375.505 516.087C379.231 516.124 380.436 516.132 384.09 515.48C396.116 491.034 409.043 466.653 420.821 442.102C420.027 440.297 418.644 437.263 418.67 435.362C419.913 436.658 420.591 439.003 421.258 440.752C423.061 437.502 424.758 433.924 426.416 430.574C425.452 428.313 424.467 426.062 423.462 423.819L423.525 423.049L423.048 422.409C423.074 422.402 423.1 422.395 423.125 422.388L423.416 423.311L423.919 423.431C424.944 424.993 426.209 427.51 427.137 429.216L487.703 308.594C500.394 283.781 513.827 259.159 525.726 233.822L526.943 234.393C527.066 235.641 527.123 234.997 526.123 236.361C520.198 256.905 449.919 472.745 448.047 474.614L446.997 473.479C446.686 476.332 448.886 477.188 447.027 478.861C443.157 482.343 421.156 481.35 419.034 483.079L419.075 483.891C420.586 484.629 436.136 483.534 439.549 483.486C437.55 485.997 437.131 486.498 434.611 488.539C437.9 488.41 442.249 487.69 444.687 489.545C444.966 491.634 444.882 492.076 446.312 493.619L447.134 493.945C447.476 492.293 446.799 490.299 446.371 488.55L485.529 486.626C503.723 485.909 521.226 485.56 539.555 484.489C535.698 486.631 522.028 490.325 517.407 491.735C507.334 494.809 497.044 498.071 486.883 500.846C484.529 501.489 473.423 504.339 472.063 505.086C466.029 506.262 457.889 507.67 451.743 507.906C438.655 508.409 432.192 510.231 420.326 515.186C416.594 516.497 416.22 516.422 412.357 516.38L415.107 517.183L415.01 517.882L385.85 529.615L383.752 529.768C381.082 528.485 380.746 526.24 381.53 523.655L381.106 523.351C378.937 525.277 380.537 526.14 378.601 528.99L377.498 529.712C374.917 530 373.005 530.188 370.372 530.25C369.135 529.411 369.152 529.543 367.622 529.598L367.029 530.401L366.602 530.541C365.94 529.075 365.325 527.736 364.597 526.302L364.13 525.866C364.219 523.653 357.042 510.171 355.522 507.1L324.991 445.256L197.41 186.886L170.358 132.256C168.596 128.708 160.825 114.018 160.077 110.773C165.527 118.94 176.903 143.284 181.586 152.715L223.434 237.388L361.1 515.982C362.208 516.313 362.391 516.271 363.367 516.839L362.642 517.963C362.491 519.524 364.138 521.78 365.005 523.269C369.585 515.476 369.248 514.5 364.557 506.795C366.499 508.704 368.006 511.447 369.477 513.798L371.973 508.187Z"/><path fill="#414041" transform="scale(1.00233 1.00233)" d="M371.973 508.187C365.278 493.072 356.832 476.249 349.59 461.328C337.388 435.863 325.03 410.473 312.517 385.159L214.126 183.055L179.096 111.035C177.269 107.287 167.155 87.3798 166.668 85.2434L167.204 85.0222C169.873 88.4999 177.175 104.96 179.533 109.76L216.005 184.743L330.664 419.87C344.556 448.311 358.458 479.037 372.679 506.965C386.531 480.09 399.497 452.935 413.813 426.318C412.872 424.37 411.775 422.37 411.744 420.215C412.47 421.712 412.877 422.701 413.9 424.043C415.309 423.638 414.691 422.742 416.306 421.14C416.953 424.204 414.131 424.29 416.295 430.348L415.896 430.489L414.469 428.649L413.785 428.774C410.935 432.766 403.712 447.787 401.174 452.811C391.971 471.476 382.617 490.065 373.111 508.577L375.505 516.087C379.231 516.124 380.436 516.132 384.09 515.48C396.116 491.034 409.043 466.653 420.821 442.102C420.027 440.297 418.644 437.263 418.67 435.362C419.913 436.658 420.591 439.003 421.258 440.752C423.061 437.502 424.758 433.924 426.416 430.574C425.452 428.313 424.467 426.062 423.462 423.819L423.525 423.049L423.048 422.409C423.074 422.402 423.1 422.395 423.125 422.388L423.416 423.311L423.919 423.431C424.944 424.993 426.209 427.51 427.137 429.216L487.703 308.594C500.394 283.781 513.827 259.159 525.726 233.822L526.943 234.393C527.066 235.641 527.123 234.997 526.123 236.361C523.261 239.112 509.325 269.436 506.604 274.774C486.119 314.001 466.073 353.455 446.47 393.13L430.742 424.314C428.167 429.346 425.527 434.403 422.974 439.446C422.468 440.447 422.671 442.832 422.771 444.019C421.821 443.997 422.315 444.032 421.289 443.903C413.014 459.499 405.309 476.311 397.014 492.024C395.265 495.338 385.963 513.695 385.305 515.996C384.508 516.356 384.346 516.536 383.52 516.636C382.805 518.493 381.514 521.51 381.106 523.351C378.937 525.277 380.537 526.14 378.601 528.99L377.498 529.712C374.917 530 373.005 530.188 370.372 530.25C369.135 529.411 369.152 529.543 367.622 529.598L367.029 530.401L366.602 530.541C365.94 529.075 365.325 527.736 364.597 526.302L364.13 525.866C364.219 523.653 357.042 510.171 355.522 507.1L324.991 445.256L197.41 186.886L170.358 132.256C168.596 128.708 160.825 114.018 160.077 110.773C165.527 118.94 176.903 143.284 181.586 152.715L223.434 237.388L361.1 515.982C362.208 516.313 362.391 516.271 363.367 516.839L362.642 517.963C362.491 519.524 364.138 521.78 365.005 523.269C369.585 515.476 369.248 514.5 364.557 506.795C366.499 508.704 368.006 511.447 369.477 513.798L371.973 508.187Z"/><path fill="white" transform="scale(1.00233 1.00233)" d="M369.581 516.452C372.406 520.38 375.536 525.293 377.498 529.712C374.917 530 373.005 530.188 370.372 530.25C369.135 529.411 369.152 529.543 367.622 529.598L365.671 523.868L369.581 516.452Z"/><path fill="white" transform="scale(1.00233 1.00233)" d="M378.601 528.99C376.883 525.993 372.451 520.244 372.241 517.604L372.869 516.96C375.032 517.013 374.407 517.094 376.488 519.214L376.951 519.121C376.999 518.209 377.038 517.739 377.15 516.808C378.766 515.939 381.547 516.469 383.52 516.636C382.805 518.493 381.514 521.51 381.106 523.351C378.937 525.277 380.537 526.14 378.601 528.99Z"/><path fill="white" transform="scale(1.00233 1.00233)" d="M372.184 510.338C373.681 512.102 374.391 513.52 374.264 515.788L373.222 516.633C371.907 516.325 371.252 516.371 370.441 515.354C370.343 513.34 371.215 512.345 372.184 510.338Z"/><path fill="#807F81" transform="scale(1.00233 1.00233)" d="M385.305 515.996C387.523 515.711 389.583 515.744 391.814 515.716L392.379 516.881L392.363 515.756L392.867 516.774L392.934 515.834L393.329 516.638C389.948 517.195 387.829 517.068 384.416 516.987C383.607 519.269 382.825 521.592 381.53 523.655L381.106 523.351C381.514 521.51 382.805 518.493 383.52 516.636C384.346 516.536 384.508 516.356 385.305 515.996Z"/><path fill="#414041" transform="scale(1.00233 1.00233)" d="M415.01 517.882C410.792 517.033 407.002 517.29 402.869 516.354C405.55 516.03 409.741 515.703 412.357 516.38L415.107 517.183L415.01 517.882Z"/><path fill="#414041" transform="scale(1.00233 1.00233)" d="M433.201 465.324C436.048 468.041 438.832 475.551 440.21 479.191C438.269 477.315 434.281 468.149 433.201 465.324Z"/><path fill="#414041" transform="scale(1.00233 1.00233)" d="M425.464 449.919C427.373 451.601 430.189 457.675 431.165 460.171C429.07 458.871 426.541 452.45 425.464 449.919Z"/><path fill="#414041" transform="scale(1.00233 1.00233)" d="M429.163 436.792C431.357 439.299 433.076 443.5 434.117 446.642C431.924 444.717 430.133 439.598 429.163 436.792Z"/><path fill="#2B2B2C" transform="scale(1.00233 1.00233)" d="M667.161 504.535L667.921 505.038L667.57 505.986C666.661 508.388 665.452 509.269 665.232 511.666C665.727 512.158 665.825 512.335 666.411 512.698L665.901 513.393C668.21 513.527 668.138 513.111 669.315 514.334C668.075 516.921 665.259 516.768 662.711 516.73L662.068 517.948L661.184 518.627C660.973 520.844 662.66 524.103 663.592 526.226L662.357 527.052C662.34 529.329 662.667 528.773 661.593 530.423C660.153 530.262 660.165 529.88 658.821 528.775C657.096 530.44 657.823 530.222 655.811 530.46L655.245 529.898L655.522 528.634C652.531 529.525 653.281 531.665 649.055 530.212L648.528 529.565L648.014 529.224C646.201 531.431 642.571 530.493 639.794 530.274L639.079 529.824C637.243 530.915 630.798 530.925 628.982 529.841L628.426 529.69L627.487 530.415C625.24 530.672 620.888 531.018 618.974 529.856L618.373 529.678C616.447 531.333 610.442 530.611 607.615 530.511L606.93 530.348C604.108 530.863 599.971 530.717 597.031 530.583L596.467 530.576C594.193 530.689 587.942 531.204 586.393 529.984L585.522 530.007C582.87 531.303 576.708 530.942 573.606 530.894L572.823 530.542C572.666 530.631 507.003 530.539 504.159 530.264L503.645 529.947C501.312 530.867 493.734 530.492 491.048 530.16L490.353 529.825C488.719 530.764 482.493 530.611 480.493 530.217C480.611 529.176 480.889 528.101 480.58 527.21L478.567 530.504L466.477 530.296C467.793 527.005 468.945 524.005 470.099 520.656L469.8 520.106L470.177 518.153C468.349 516.172 463.13 517.422 460.319 517.422L458.594 521.747L458.127 521.045C456.777 524.005 455.286 527.501 453.838 530.364C452.047 530.378 446.77 530.692 445.518 529.868L444.478 529.885C442.944 530.669 437.926 530.615 436.515 529.248L435.959 528.356C435.482 529.246 435.386 529.217 434.676 529.976C432.395 530.692 429.789 530.371 427.338 530.275C428.7 527.146 430.921 523.164 432.544 520.061L432.128 519.476L432.384 518.217C430.753 516.929 427.032 517.39 424.732 517.462L422.517 521.862L421.947 521.513C420.383 524.926 419.312 527.129 417.408 530.344L409.642 530.257L409.19 529.732L409.974 527.566C406.135 529.082 411.158 530.792 401.152 530.312L400.168 530.083C397.09 530.76 391.917 530.316 388.524 530.575C387.561 531.204 388.113 531.037 386.838 530.96L385.85 529.615L415.01 517.882L415.107 517.183L412.357 516.38C416.22 516.422 416.594 516.497 420.326 515.186L423.191 515.707C434.226 510.259 446.945 510.956 459.161 510.353L512.88 507.985L513.621 507.949C516.243 507.357 532.515 507.174 536.021 507.097C553.324 506.869 570.625 506.467 587.921 505.89L635.102 504.857C640.167 504.744 645.236 504.605 650.301 504.572C651.133 504.567 651.755 505.461 652.252 505.99L652.752 504.897C654.505 504.323 664.548 504.533 667.161 504.535Z"/><path fill="white" transform="scale(1.00233 1.00233)" d="M667.161 504.535C666.202 507.205 664.867 509.586 663.563 512.107C661.194 512.186 657.652 512.545 655.535 511.842L654.712 510.59L654.175 511.794C651.937 512.355 627.353 512.953 624.432 512.825C617.693 512.531 573.803 515.082 571.133 513.713L571.469 512.237C570.316 513.221 570.69 512.851 569.888 514.212C565.864 513.811 551.574 513.688 547.972 514.509C536.432 514.418 522.675 515.133 510.743 515.251C511.963 512.571 512.814 510.822 513.621 507.949C516.243 507.357 532.515 507.174 536.021 507.097C553.324 506.869 570.625 506.467 587.921 505.89L635.102 504.857C640.167 504.744 645.236 504.605 650.301 504.572C651.133 504.567 651.755 505.461 652.252 505.99L652.752 504.897C654.505 504.323 664.548 504.533 667.161 504.535Z"/><path fill="white" transform="scale(1.00233 1.00233)" d="M509.957 517.387C511.39 517.44 512.781 517.498 514.201 517.254L513.299 517.422L513.84 516.683L513.691 517.363L512.918 517.436L513.62 516.423C516.401 515.247 563.186 515.145 568.837 515.554C567.888 516.275 567.667 516.5 566.842 517.368L568.236 517.985L568.408 519.288C568.984 518.239 569.088 518.118 569.864 517.197C573.543 517.707 576.309 517.385 579.119 517.856C577.21 520.95 574.181 527.053 572.823 530.542C572.666 530.631 507.003 530.539 504.159 530.264C505.551 526.451 508.138 521.065 509.957 517.387Z"/><path fill="#807F81" transform="scale(1.00233 1.00233)" d="M529.518 516.818C532.463 516.77 535.09 516.616 538 517.18L538.164 517.89C536.097 517.98 529.374 518.517 527.99 517.313L529.518 516.818Z"/><path fill="#807F81" transform="scale(1.00233 1.00233)" d="M546.215 517.255C548.831 516.864 554.021 516.464 556.331 517.742C553.541 517.969 548.59 518.567 546.215 517.255Z"/><path fill="white" transform="scale(1.00233 1.00233)" d="M423.191 515.707C434.226 510.259 446.945 510.956 459.161 510.353L512.88 507.985C511.729 510.85 510.965 512.761 509.5 515.49C489.962 515.83 470.422 515.968 450.881 515.906C443.266 515.944 430.396 516.942 423.191 515.707Z"/><path fill="white" transform="scale(1.00233 1.00233)" d="M485.783 516.954L496.805 516.994C494.855 520.305 491.372 526.217 490.353 529.825C488.719 530.764 482.493 530.611 480.493 530.217C480.611 529.176 480.889 528.101 480.58 527.21L478.567 530.504L466.477 530.296C467.793 527.005 468.945 524.005 470.099 520.656C470.669 519.327 470.768 518.788 471.782 517.767C476.216 516.247 479.769 517.161 484.563 516.981C483.917 518.525 482.861 520.617 482.807 522.215C483.886 520.427 484.796 518.795 485.783 516.954Z"/><path fill="white" transform="scale(1.00233 1.00233)" d="M590.136 517.616L590.971 517.948C589.766 522.088 587.799 525.893 586.393 529.984L585.522 530.007C582.87 531.303 576.708 530.942 573.606 530.894L572.823 530.542C574.181 527.053 577.21 520.95 579.119 517.856L579.774 518.066C581.329 517.406 583.657 517.46 585.412 517.374L585.727 517.446L590.136 517.616Z"/><path fill="#414041" transform="scale(1.00233 1.00233)" d="M590.136 517.616L590.971 517.948C589.766 522.088 587.799 525.893 586.393 529.984L585.522 530.007C586.556 526.258 588.847 521.648 590.136 517.616Z"/><path fill="#9B9B9E" transform="scale(1.00233 1.00233)" d="M579.774 518.066C577.835 522.295 574.889 526.532 573.606 530.894L572.823 530.542C574.181 527.053 577.21 520.95 579.119 517.856L579.774 518.066Z"/><path fill="white" transform="scale(1.00233 1.00233)" d="M415.57 519.054C417.902 518.173 420.794 516.642 422.947 517.556C423.275 519.479 422.905 519.339 421.947 521.513C420.383 524.926 419.312 527.129 417.408 530.344L409.642 530.257L409.19 529.732L409.974 527.566C406.135 529.082 411.158 530.792 401.152 530.312L403.763 523.956C406.268 522.888 410.177 521.034 412.719 520.618C413.047 521.807 412.31 522.623 411.646 524.092C412.831 523.324 414.662 520.365 415.57 519.054Z"/><path fill="white" transform="scale(1.00233 1.00233)" d="M498.304 517.015C500.896 516.923 506.213 516.491 508.325 517.403L508.184 518.418C507.406 521.036 505.225 526.029 503.681 528.241L503.645 529.947C501.312 530.867 493.734 530.492 491.048 530.16C493.165 525.226 494.734 521.04 498.304 517.015Z"/><path fill="#EEEFF0" transform="scale(1.00233 1.00233)" d="M503.681 528.241L502.205 528.06L501.761 527.397C503.41 523.227 504.374 522.071 506.971 518.333L508.184 518.418C507.406 521.036 505.225 526.029 503.681 528.241Z"/><path fill="white" transform="scale(1.00233 1.00233)" d="M612.688 517.778L623.233 517.755C621.495 521.798 619.912 525.539 618.373 529.678C616.447 531.333 610.442 530.611 607.615 530.511C609.357 526.434 611.042 521.928 612.688 517.778Z"/><path fill="white" transform="scale(1.00233 1.00233)" d="M590.971 517.948C594.18 517.564 597.444 517.798 600.681 517.916C599.772 520.465 596.855 528.196 596.467 530.576C594.193 530.689 587.942 531.204 586.393 529.984C587.799 525.893 589.766 522.088 590.971 517.948Z"/><path fill="white" transform="scale(1.00233 1.00233)" d="M601.86 517.939C604.805 517.824 608.422 517.951 611.421 517.979C610.29 521.911 608.301 526.222 606.93 530.348C604.108 530.863 599.971 530.717 597.031 530.583C598.074 527.159 600.452 521.141 601.86 517.939Z"/><path fill="white" transform="scale(1.00233 1.00233)" d="M648.528 529.565C650.03 525.771 652.813 516.148 657.849 517.32C659.027 518.499 659.213 518.485 659.526 520.147C659.026 521.449 658.563 522.231 658.772 523.598C659.558 522.416 659.14 522.735 660.33 522.128C661.395 523.03 661.91 525.557 662.357 527.052C662.34 529.329 662.667 528.773 661.593 530.423C660.153 530.262 660.165 529.88 658.821 528.775C657.096 530.44 657.823 530.222 655.811 530.46L655.245 529.898L655.522 528.634C652.531 529.525 653.281 531.665 649.055 530.212L648.528 529.565Z"/><path fill="white" transform="scale(1.00233 1.00233)" d="M624.196 517.784L633.715 517.762C632.265 521.043 629.575 526.534 628.426 529.69L627.487 530.415C625.24 530.672 620.888 531.018 618.974 529.856C620.994 525.826 622.312 521.802 624.196 517.784Z"/><path fill="white" transform="scale(1.00233 1.00233)" d="M634.914 517.928C637.543 517.842 640.914 517.648 643.497 517.693C642.601 520.132 639.608 527.638 639.079 529.824C637.243 530.915 630.798 530.925 628.982 529.841C631.025 526.003 632.864 521.434 634.914 517.928Z"/><path fill="white" transform="scale(1.00233 1.00233)" d="M451.432 517.407C453.707 517.425 456.475 516.885 458.366 517.765C459.051 519.309 458.784 518.917 458.127 521.045C456.777 524.005 455.286 527.501 453.838 530.364C452.047 530.378 446.77 530.692 445.518 529.868C447.037 526.167 449.297 520.607 451.432 517.407Z"/><path fill="white" transform="scale(1.00233 1.00233)" d="M432.544 520.061C434.859 516.171 436.922 517.304 441.315 517.446C439.59 521.112 437.804 524.749 435.959 528.356C435.482 529.246 435.386 529.217 434.676 529.976C432.395 530.692 429.789 530.371 427.338 530.275C428.7 527.146 430.921 523.164 432.544 520.061Z"/><path fill="white" transform="scale(1.00233 1.00233)" d="M442.506 517.433L449.956 517.44C448.472 520.71 445.541 526.692 444.478 529.885C442.944 530.669 437.926 530.615 436.515 529.248L442.506 517.433Z"/><path fill="white" transform="scale(1.00233 1.00233)" d="M644.509 517.814L652.513 517.827C651.459 521.286 649.33 525.463 648.014 529.224C646.201 531.431 642.571 530.493 639.794 530.274C641.825 525.58 642.882 522.753 644.509 517.814Z"/><path fill="#EEEFF0" transform="scale(1.00233 1.00233)" d="M585.412 517.374C581.752 516.904 578.101 516.452 574.425 517.018C572.995 517.238 571.622 516.769 570.765 515.57C572.189 514.672 587.679 514.91 590.454 514.989L590.83 515.704C589.09 517.4 587.826 515.953 585.727 517.446L585.412 517.374Z"/><path fill="white" transform="scale(1.00233 1.00233)" d="M402.346 524.381C401.102 526.828 400.769 527.431 400.168 530.083C397.09 530.76 391.917 530.316 388.524 530.575C391.636 528.487 398.798 525.721 402.346 524.381Z"/><path fill="white" transform="scale(1.00233 1.00233)" d="M662.711 516.73L662.425 515.849C660.757 516.769 659.544 516.694 657.899 515.818C657.054 514.382 657.174 515.129 657.14 513.603C659.438 512.892 662.73 514.043 665.901 513.393C668.21 513.527 668.138 513.111 669.315 514.334C668.075 516.921 665.259 516.768 662.711 516.73Z"/><path fill="#9B9B9E" transform="scale(1.00233 1.00233)" d="M547.972 514.509C551.574 513.688 565.864 513.811 569.888 514.212C567.009 514.957 551.187 514.938 547.972 514.509Z"/><path fill="white" transform="scale(1.00233 1.00233)" d="M640.881 513.75C645.127 513.555 654.226 512.166 657.143 515.586L656.552 516.157C653.234 516.731 625.494 516.757 623.916 515.909L622.547 516.734C619.03 516.751 603.75 517.545 602.377 516.08L603.018 515.145C605.046 513.831 635.641 513.966 640.881 513.75Z"/><path fill="white" transform="scale(1.00233 1.00233)" d="M596.618 514.768C598.501 514.633 600.875 513.99 601.531 516.08C599.907 517.159 600.339 516.819 598.125 516.973C596.216 517.051 593.278 517.615 592.362 515.645C593.741 514.567 594.83 514.786 596.618 514.768Z"/><path fill="white" transform="scale(1.00233 1.00233)" d="M555.236 483.384C555.405 485.61 555.794 493.517 555.548 495.399L555.94 496.44L556.307 503.725C535.575 504.638 514.088 505.125 493.276 505.578C488.596 506.684 482.9 505.704 477.972 505.479L475.866 505.682C474.964 506.357 472.409 506.518 471.279 506.588L470.973 506.04L472.799 505.32L472.063 505.086C473.423 504.339 484.529 501.489 486.883 500.846C497.044 498.071 507.334 494.809 517.407 491.735C522.028 490.325 535.698 486.631 539.555 484.489L540.541 483.924C541.616 484.493 541.209 484.08 541.611 485.346C546.426 483.898 550.214 483.617 555.236 483.384Z"/><path fill="white" transform="scale(1.00233 1.00233)" d="M493.276 505.578C491.257 505.517 487.439 505.949 485.88 505.185C488.514 504.609 494.596 504.1 497.454 503.774L521.351 501.026C531.649 499.812 546.238 497.177 555.94 496.44L556.307 503.725C535.575 504.638 514.088 505.125 493.276 505.578Z"/><path fill="#414041" transform="scale(1.00233 1.00233)" d="M539.555 484.489L540.541 483.924C541.616 484.493 541.209 484.08 541.611 485.346C535.971 487.556 527.798 489.695 521.771 491.578C521.149 493.602 520.476 496.448 519.266 498.068L519.537 497.662C519.309 495.796 520.277 493.518 520.972 491.739C511.893 494.478 502.697 497.254 493.628 499.993C490.502 500.937 477.22 504.148 475.217 505.422L475.866 505.682C474.964 506.357 472.409 506.518 471.279 506.588L470.973 506.04L472.799 505.32L472.063 505.086C473.423 504.339 484.529 501.489 486.883 500.846C497.044 498.071 507.334 494.809 517.407 491.735C522.028 490.325 535.698 486.631 539.555 484.489Z"/><path fill="#646466" transform="scale(1.00233 1.00233)" d="M477.972 505.479C485.66 503.915 494.248 503.419 502.123 502.396C519.752 500.107 538.065 498.422 555.548 495.399L555.94 496.44C546.238 497.177 531.649 499.812 521.351 501.026L497.454 503.774C494.596 504.1 488.514 504.609 485.88 505.185C487.439 505.949 491.257 505.517 493.276 505.578C488.596 506.684 482.9 505.704 477.972 505.479Z"/><path fill="white" transform="scale(1.00233 1.00233)" d="M481.117 768.196L481.997 768.248C486.902 770.212 491.222 771.975 496.023 774.225C494.926 777.008 492.293 784.129 490.672 786.108L490.006 786.738C485.933 782.505 482.833 773.663 481.117 768.196Z"/><path fill="#414041" transform="scale(1.00233 1.00233)" d="M481.117 768.196L481.997 768.248C484.063 774.166 486.557 781.218 490.672 786.108L490.006 786.738C485.933 782.505 482.833 773.663 481.117 768.196Z"/><path fill="white" transform="scale(1.00233 1.00233)" d="M537.206 208.135C539.833 206.409 540.584 203.228 541.677 200.263L542.828 200.973C543.683 214.062 543.64 227.117 544.276 240.213C544.416 243.112 544.527 245.838 544.371 248.741C542.82 241.334 541.705 233.486 540.563 225.988C539.63 219.855 537.515 213.359 539.95 207.605L537.206 208.135Z"/><path fill="#2B2B2C" transform="scale(1.00233 1.00233)" d="M537.206 208.135C539.833 206.409 540.584 203.228 541.677 200.263L542.828 200.973C541.807 203.156 540.847 205.368 539.95 207.605L537.206 208.135Z"/><path fill="white" transform="scale(1.00233 1.00233)" d="M460.319 517.422C463.13 517.422 468.349 516.172 470.177 518.153L469.8 520.106C468.155 523.476 466.999 526.865 465.453 530.225C461.969 530.224 458.407 530.265 454.933 530.218C455.851 528.126 457.935 523.727 458.594 521.747L460.319 517.422Z"/><path fill="white" transform="scale(1.00233 1.00233)" d="M424.732 517.462C427.032 517.39 430.753 516.929 432.384 518.217L432.128 519.476C429.907 523.035 428.124 527.269 425.791 530.431L418.452 530.32C419.788 527.492 421.143 524.672 422.517 521.862L424.732 517.462Z"/><path fill="#EEEFF0" transform="scale(1.00233 1.00233)" d="M503.377 815.384C505.98 817.328 513.909 822.332 514.621 824.638C514.115 826.019 514.218 825.985 513.016 826.801C511.423 826.746 511.473 826.829 509.88 827.1L509.51 827.218C508.238 826.418 507.77 824.888 507.089 823.452L506.298 823.748C505.092 821.507 503.472 818.638 503.232 816.154L503.377 815.384Z"/><path fill="#2B2B2C" transform="scale(1.00233 1.00233)" d="M507.406 818.509C508.686 821.446 509.892 825.713 513.016 826.801C511.423 826.746 511.473 826.829 509.88 827.1C508.502 824.138 508.085 821.69 507.406 818.509Z"/><path fill="#414041" transform="scale(1.00233 1.00233)" d="M503.232 816.154C504.743 818.146 506.13 821.109 507.089 823.452L506.298 823.748C505.092 821.507 503.472 818.638 503.232 816.154Z"/><path fill="white" transform="scale(1.00233 1.00233)" d="M667.921 505.038C669.566 504.98 669.82 504.858 671.389 505.417C673.064 507.85 670.978 510.077 669.38 512.003C668.037 512.437 667.8 512.523 666.411 512.698C665.825 512.335 665.727 512.158 665.232 511.666C665.452 509.269 666.661 508.388 667.57 505.986L667.921 505.038Z"/><path fill="white" transform="scale(1.00233 1.00233)" d="M662.068 517.948C664.684 517.936 665.003 517.46 666.64 518.688C666.953 520.846 665.019 524.694 663.592 526.226C662.66 524.103 660.973 520.844 661.184 518.627L662.068 517.948Z"/><path fill="#EEEFF0" transform="scale(1.00233 1.00233)" d="M459.508 718.904C461.114 722.035 463.066 726.144 464.769 729.125L463.838 731.032C460.948 728.455 459.308 724.127 458.175 720.514C458.35 719.431 458.259 719.927 459.508 718.904Z"/><path fill="#646466" transform="scale(1.00233 1.00233)" d="M458.175 720.514C459.775 722.21 463.032 728.747 463.838 731.032C460.948 728.455 459.308 724.127 458.175 720.514Z"/><path fill="#EEEFF0" transform="scale(1.00233 1.00233)" d="M444.906 688.531L450.058 698.874L448.738 699.767C446.591 698.037 444.416 693.026 443.243 690.469L443.546 689.949L444.906 688.531Z"/><path fill="#414041" transform="scale(1.00233 1.00233)" d="M448.738 699.767C446.591 698.037 444.416 693.026 443.243 690.469L443.546 689.949C445.167 692.134 447.704 697.18 448.738 699.767Z"/><path fill="#EEEFF0" transform="scale(1.00233 1.00233)" d="M382.344 559.763C384.112 562.959 385.297 565.583 386.787 568.926L385.398 569.276C384.116 567.473 380.165 561.566 380.467 559.612L382.344 559.763Z"/><path fill="#646466" transform="scale(1.00233 1.00233)" d="M385.398 569.276C384.116 567.473 380.165 561.566 380.467 559.612C381.981 561.657 385.1 566.823 385.398 569.276Z"/><path fill="#EEEFF0" transform="scale(1.00233 1.00233)" d="M466.888 733.531C468.189 735.707 470.341 738.698 469.732 741.14C468.191 740.805 468.52 740.66 467.261 739.119C465.637 737.665 465.295 736.822 465.377 734.758C465.926 734.382 466.398 733.979 466.888 733.531Z"/><path fill="#EEEFF0" transform="scale(1.00233 1.00233)" d="M411.796 620.804C413.116 623.425 414.378 626.075 415.583 628.751L414.74 629.854L414.437 630.136C413.03 628.353 410.896 623.384 410.264 621.188L410.583 621.275L411.796 620.804Z"/><path fill="#807F81" transform="scale(1.00233 1.00233)" d="M414.74 629.854L414.437 630.136C413.03 628.353 410.896 623.384 410.264 621.188L410.583 621.275C411.874 623.12 414.167 627.704 414.74 629.854Z"/><path fill="#EEEFF0" transform="scale(1.00233 1.00233)" d="M678.212 497.975L679.443 497.464C680.852 498.654 683.519 500.69 684.454 502.155C682.159 501.71 680.966 501.58 678.828 500.616C677.695 499.091 677.926 499.935 678.212 497.975Z"/><path fill="white" transform="scale(1.00233 1.00233)" d="M385.023 535.445C384.107 533.505 384.103 534.369 384.325 532.665C386.819 532.107 389.881 532.283 392.455 532.338C419.983 532.926 447.523 532.277 475.073 532.554C479.475 532.598 484.203 532.279 488.525 532.68L488.934 533.418L488.034 535.052L488.408 536.726L488.796 536.001L488.974 534.744C491.011 531.05 497.946 532.534 501.931 532.797L502.536 533.576C502.857 533.29 503.179 533.004 503.501 532.718C521.32 532.229 539.191 533.147 557.028 533.013C557.971 533.006 559.246 533.193 560.133 533.471L560.695 533.554C563.163 532.725 567.682 533.039 570.367 533.162C556.064 563.789 538.396 595.921 523.583 626.38C519.21 635.373 480.31 715.296 478.553 716.15L478.132 716.724C478.431 718.196 475.243 725.268 474.454 727.211C472.071 723.064 469.789 718.584 467.701 714.281C458.505 695.326 449.476 676.302 439.729 657.625C439.456 657.1 439.661 653.543 439.704 652.679L438.589 653.572C436.468 652.642 434.612 645.369 433.329 642.834C417.051 610.658 401.465 578.142 385.756 545.688C384.332 542.746 379.03 535.266 380.648 532.731L381.942 532.925C383.581 534.039 383.619 534.739 384.38 536.727L384.633 537.403L385.023 535.445Z"/><path fill="white" transform="scale(1.00233 1.00233)" d="M385.023 535.445C384.107 533.505 384.103 534.369 384.325 532.665C386.819 532.107 389.881 532.283 392.455 532.338C419.983 532.926 447.523 532.277 475.073 532.554C479.475 532.598 484.203 532.279 488.525 532.68L488.934 533.418L488.034 535.052C461.262 534.554 434.244 535.386 407.434 534.995C403.473 534.938 387.547 534.64 385.023 535.445Z"/><path fill="#807F81" transform="scale(1.00233 1.00233)" d="M385.023 535.445C387.547 534.64 403.473 534.938 407.434 534.995C434.244 535.386 461.262 534.554 488.034 535.052L488.408 536.726C487.834 538.185 487.573 539.34 486.397 540.336C486.1 538.951 487.134 537.448 487.817 536.048L385.212 536.064C387.468 541.228 391.062 548.055 392.865 553.007L392.61 552.971L393 553.939C389.652 548.797 387.664 542.544 384.633 537.403L385.023 535.445Z"/><path fill="white" transform="scale(1.00233 1.00233)" d="M502.536 533.576C502.857 533.29 503.179 533.004 503.501 532.718C521.32 532.229 539.191 533.147 557.028 533.013C557.971 533.006 559.246 533.193 560.133 533.471L559.646 534.318C558.026 535.327 508.607 535.315 502.869 534.839L502.536 533.576Z"/><path fill="#807F81" transform="scale(1.00233 1.00233)" d="M501.931 532.797L502.536 533.576L502.869 534.839C508.607 535.315 558.026 535.327 559.646 534.318L560.133 533.471L560.695 533.554C560.767 536.071 557.865 541.369 555.81 542.642C556.79 540.432 557.796 538.234 558.83 536.049C541.656 536.002 518.94 535.281 502.245 536.071C501.363 537.053 501.611 536.694 501.057 537.862L500.303 537.697L499.819 536.291C497.744 535.706 491.401 536.008 488.796 536.001L488.974 534.744C491.011 531.05 497.946 532.534 501.931 532.797Z"/><path fill="white" transform="scale(1.00233 1.00233)" d="M488.974 534.744C491.011 531.05 497.946 532.534 501.931 532.797C501.28 534.023 501.388 534.486 500.107 534.776C497.279 535.416 491.837 535.106 488.974 534.744Z"/><path fill="#2B2B2C" transform="scale(1.00233 1.00233)" d="M478.132 716.724C476.28 714.584 473.997 709.345 473.487 706.549C475.401 709.086 477.151 713.18 478.553 716.15L478.132 716.724Z"/><path fill="#414041" transform="scale(1.00233 1.00233)" d="M551.702 550.966C551.84 552.842 548.11 559.708 547.026 561.878L546.841 560.668C547.923 557.473 549.639 553.639 551.702 550.966Z"/><path fill="white" transform="scale(1.00233 1.00233)" d="M578.479 538.42L654.449 538.467C645.469 557.828 634.509 578.125 624.968 597.43L546.056 756.579C540.199 768.442 534.413 780.341 528.7 792.274C524.935 799.961 519.427 808.211 518.12 816.542C516.127 815.671 514.141 814.826 512.186 813.872C512.459 808.962 512.783 804.054 513.157 799.151L513.906 797.685C513.625 796.45 514.044 795.319 514.313 793.968L513.802 793.22L511.852 792.928C511.182 792.415 505.312 778.795 504.246 776.595C505.555 774.585 507.116 772.468 508.509 770.493C501.912 769.002 493.534 764.787 487.694 761.462C491.445 755.799 495.043 749.503 498.381 743.587C494.743 742.124 492.06 740.884 488.545 739.132C487.844 736.551 485.396 729.036 485.865 727.203L485.052 726.505C487.732 719.794 493.946 708.21 497.383 701.157L527.084 641.094C538.171 618.505 549.384 595.978 560.724 573.515C565.974 562.997 572.578 548.119 578.479 538.42Z"/><path fill="#414041" transform="scale(1.00233 1.00233)" d="M513.906 797.685C514.976 799.404 517.979 805.6 517.731 807.261C515.364 805.442 515.003 799.386 513.157 799.151L513.906 797.685Z"/><path fill="#646466" transform="scale(1.00233 1.00233)" d="M493.197 754.293C495.818 755.714 497.619 761.351 498.807 764.215C496.944 762.844 494.651 756.973 493.197 754.293Z"/><path fill="white" transform="scale(1.00233 1.00233)" d="M597.32 362.727C608.483 362.53 618.23 363.922 629.172 365.653C632.198 372.79 634.05 380.555 636.31 387.963C637.897 393.164 639.807 398.262 641.649 403.381C648.637 422.694 655.49 442.056 662.209 461.464C663.164 464.201 664.183 466.927 665.099 469.675C667.622 477.244 669.563 484.992 672.412 492.452C672.767 493.382 671.761 494.593 671.25 495.292C666.074 494.002 653.953 489.065 648.448 486.987C633.553 481.392 610.462 471.807 595.88 465.092C595.072 462.653 596.739 463.26 596.214 461.337C595.519 462.248 594.836 463.094 594.118 463.983C591.805 464.208 574.162 456.445 572.238 454.47C572.323 447.26 573.217 442.517 574.962 435.504C579.357 417.842 581.546 399.82 583.766 381.791L586.678 380.096L586.707 379.664L584.511 380.27L583.97 379.752L584.725 363.543C588.607 363.07 593.352 362.936 597.32 362.727Z"/><path fill="#9B9B9E" transform="scale(1.00233 1.00233)" d="M613.153 365.225C613.844 366.189 614.513 367.168 615.159 368.163C616.319 368.071 615.996 368.012 617.105 368.243C616.538 368.588 615.972 368.934 615.406 369.279C615.022 372.093 619.048 383.087 618.27 385.139L617.377 383.675C616.5 379.087 615.493 374.524 614.359 369.992C612.964 370.44 610.741 371.336 609.422 371.147C610.834 370.517 612.954 369.846 613.753 368.788L613.153 365.225Z"/><path fill="white" transform="scale(1.00233 1.00233)" d="M450.259 477.904C451.557 471.028 469.793 416.316 472.198 414.863C483.874 414.995 499.863 417.91 511.841 418.818C514.35 419.008 529.173 420.781 531.084 421.352L530.992 422.199L531.583 422.482C532.785 421.718 533.176 421.642 534.502 421.17C537.572 422.968 548.888 423.078 553.027 423.989C553.247 427.185 554.228 444.222 553.424 446.456L553.426 447.596C554.924 449.597 554.642 467.839 554.842 471.814L554.782 472.568C554.988 473.974 555.32 474.881 554.635 476.074C551.767 476.644 545.457 476.838 542.255 477.014C533.989 477.463 525.72 477.845 517.448 478.161C512.044 478.38 497.886 479.348 493.25 479.062C483.177 480.417 462.909 480.251 452.238 480.795C451.793 480.571 451.347 480.348 450.902 480.125C450.29 478.901 450.47 479.312 450.259 477.904Z"/><path fill="#2B2B2C" transform="scale(1.00233 1.00233)" d="M554.842 471.814L554.782 472.568C554.988 473.974 555.32 474.881 554.635 476.074C551.767 476.644 545.457 476.838 542.255 477.014C533.989 477.463 525.72 477.845 517.448 478.161C512.044 478.38 497.886 479.348 493.25 479.062C483.177 480.417 462.909 480.251 452.238 480.795C451.793 480.571 451.347 480.348 450.902 480.125C450.29 478.901 450.47 479.312 450.259 477.904C450.549 478.055 450.904 478.015 451.228 478.051L452.301 476.781L453.103 476.777C453.482 477.126 454.319 477.362 454.476 477.316C459.055 475.963 460.304 475.037 465.136 475.061C461.677 475.924 458.239 476.87 454.825 477.898C465.699 478.376 477.432 477.278 488.343 476.709C510.545 475.551 532.678 473.368 554.842 471.814Z"/><path fill="white" transform="scale(1.00233 1.00233)" d="M554.782 472.568C554.988 473.974 555.32 474.881 554.635 476.074C551.767 476.644 545.457 476.838 542.255 477.014C533.989 477.463 525.72 477.845 517.448 478.161C512.044 478.38 497.886 479.348 493.25 479.062C490.67 478.861 488.551 478.766 485.973 478.71L485.991 478.102C493.755 477.153 503.45 476.815 511.402 476.225C525.87 475.103 540.33 473.884 554.782 472.568Z"/><path fill="#EEEFF0" transform="scale(1.00233 1.00233)" d="M450.902 480.125C453.902 476.809 455.74 479.374 458.784 479.378C467.424 479.391 477.42 478.3 485.991 478.102L485.973 478.71C488.551 478.766 490.67 478.861 493.25 479.062C483.177 480.417 462.909 480.251 452.238 480.795C451.793 480.571 451.347 480.348 450.902 480.125Z"/><path fill="#807F81" transform="scale(1.00233 1.00233)" d="M553.426 447.596C544.554 450.065 527.813 454.792 519.515 458.144L518.76 458.453C521.44 455.999 548.268 448.002 553.424 446.456L553.426 447.596Z"/><path fill="#807F81" transform="scale(1.00233 1.00233)" d="M452.301 476.781C452.846 473.989 459.97 455.138 461.318 453.037C459.778 460.435 455.295 469.166 453.103 476.777L452.301 476.781Z"/><path fill="#9B9B9E" transform="scale(1.00233 1.00233)" d="M516.461 458.051L516.832 458.497C515.456 459.956 501.993 463.507 498.69 464.695L498.312 464.258C499.544 463.03 512.96 459.461 516.461 458.051Z"/><path fill="#EEEFF0" transform="scale(1.00233 1.00233)" d="M474.838 463.542C475.03 463.673 475.222 463.805 475.415 463.937C474.095 465.678 472.064 466.778 470.199 468.011L469.529 467.77C470.323 466.355 473.346 464.564 474.838 463.542Z"/><path fill="white" transform="scale(1.00233 1.00233)" d="M492.834 348.189C498.076 349.004 505.615 350.924 511.058 352.107C524.196 354.833 537.271 357.86 550.271 361.183C550.534 366.609 553.013 404.726 551.89 406.667L552.365 407.591L552.926 423.156L553.027 423.989C548.888 423.078 537.572 422.968 534.502 421.17L535.046 421.23L534.279 420.304C535.307 419.394 535.711 418.943 536.606 417.941C535.348 418.243 534.204 419.463 533.086 420.382C519.085 417.415 503.053 414.995 488.768 412.358L488.606 411.853L488.716 411.301C483.861 411.562 482.849 411.325 478.066 410.178L477.51 410.036C475.71 409.694 475.108 409.722 473.648 408.582C472.95 406.026 490.186 355.091 492.834 348.189Z"/><path fill="#414041" transform="scale(1.00233 1.00233)" d="M534.502 421.17L535.046 421.23L534.279 420.304C540.835 421.614 546.494 422.071 552.926 423.156L553.027 423.989C548.888 423.078 537.572 422.968 534.502 421.17Z"/><path fill="#9B9B9E" transform="scale(1.00233 1.00233)" d="M477.51 410.036C478.335 406.905 481.019 395.613 482.921 393.776C482.317 396.479 479.099 407.929 478.066 410.178L477.51 410.036Z"/><path fill="#9B9B9E" transform="scale(1.00233 1.00233)" d="M552.365 407.591C550.966 408.473 548.307 410.372 546.836 410.607C547.672 409.248 550.435 407.644 551.89 406.667L552.365 407.591Z"/><path fill="#807F81" transform="scale(1.00233 1.00233)" d="M496.302 355.448L496.683 356.002L490.246 374.165L489.714 373.369C491.324 368.083 494.068 360.425 496.302 355.448Z"/><path fill="#9B9B9E" transform="scale(1.00233 1.00233)" d="M489.088 375.32C489.647 377.063 487.964 380.381 487.219 382.313L486.663 381.976C487.404 379.203 487.974 377.894 489.088 375.32Z"/><path fill="white" transform="scale(1.00233 1.00233)" d="M550.299 186.664C578.269 253.46 588.296 326.406 579.388 398.272C578.073 408.549 574.47 430.77 571.341 440.467C569.013 419.856 567.502 400.175 565.528 379.645L549.865 215.712C549.895 214.468 549.929 214.899 549.562 213.691C549.587 209.049 548.365 200.172 547.804 195.324C547.41 191.65 548.571 189.98 550.299 186.664Z"/><path fill="white" transform="scale(1.00233 1.00233)" d="M494.395 342.493C497.064 334.13 509.294 292.859 512.493 288.261L513.319 288.37L514.27 289.717C514.343 287.573 513.293 286.883 513.623 284.281L514.305 283.554C516.309 283.94 517.444 284.65 519.296 285.565L519.602 286.037L519.071 288.298L519.494 288.46L520.143 286.58C522.464 285.899 543.417 294.55 547.318 296.053C548.484 317.374 549.481 338.703 550.307 360.04L549.738 360.334C548.716 358.632 548.539 357.895 547.9 355.981L547.7 356.161L548.416 359.383C542.469 359.174 507.493 347.181 500.528 344.813L499.139 344.317L494.395 342.493Z"/><path fill="#807F81" transform="scale(1.00233 1.00233)" d="M499.139 344.317C502.089 341.584 504.054 327.53 506.91 323.046L507.303 323.108C505.355 330.13 502.748 337.813 500.528 344.813L499.139 344.317Z"/><path fill="#9B9B9E" transform="scale(1.00233 1.00233)" d="M513.46 303.313C514.159 305.274 510.069 314.764 509.077 317.425C508.459 314.867 512.254 306.23 513.46 303.313Z"/><path fill="white" transform="scale(1.00233 1.00233)" d="M587.419 262.294L588.649 262.508C593.246 271.337 601.115 293.172 605.011 303.415C612.402 322.844 621.245 343.529 628.174 362.921C623.057 362.275 617.763 361.458 612.624 361.479C609.922 361.534 608.587 361.375 605.938 361.062C598.925 360.953 591.913 361.31 584.948 362.132C585.413 336.999 584.854 312.896 580.953 287.992C579.688 279.923 578.309 271.735 577.237 263.659C580.552 263.351 584.231 263.157 587.419 262.294Z"/><path fill="#807F81" transform="scale(1.00233 1.00233)" d="M605.938 361.062C607.413 361.005 610.212 361.056 611.461 360.518C610.956 352.18 596.182 304.455 597.406 301.671C598.263 302.895 612.473 357.998 612.624 361.479C609.922 361.534 608.587 361.375 605.938 361.062Z"/><path fill="#9B9B9E" transform="scale(1.00233 1.00233)" d="M587.419 262.294L588.649 262.508C588.605 264.142 590.422 271.705 590.819 274.757C589.768 271.336 587.811 265.594 587.419 262.294Z"/><path fill="white" transform="scale(1.00233 1.00233)" d="M573.059 464.161C578.886 465.492 586.458 467.608 591.306 471.123L591.796 471.486C592.592 470.532 592.089 470.839 593.306 470.57C595.066 471.214 599.587 472.578 600.599 473.786L600.119 475.299L600.541 475.574L601.641 474.425C601.967 474.344 602.294 474.262 602.62 474.181C621.662 481.279 651.445 490.995 669.663 497.554C670.497 499.061 670.061 499.522 669.85 501.653C647.974 502.925 625.225 501.731 603.276 502.79C599.673 502.964 590.194 503.696 587.023 503.155C586.931 502.267 587.023 502.67 586.784 501.939L586.081 503.198C584.084 503.676 578.268 503.482 575.894 503.465C575.345 490.014 574.156 477.548 573.059 464.161Z"/><path fill="#414041" transform="scale(1.00233 1.00233)" d="M595.603 483.717L596.305 484.416C595.958 486.703 594.373 489.423 593.301 491.579L592.961 491.366C592.962 490.137 595.051 485.28 595.603 483.717Z"/><path fill="white" transform="scale(1.00233 1.00233)" d="M549.39 236.661L550.029 236.582L550.532 237.868C554.438 286.755 559.659 336.875 564.215 385.767L567.853 423.35C568.586 430.739 569.657 438.993 569.535 446.374C569.459 450.991 566.059 458.011 564.2 462.537C567.005 463.204 568.526 463.351 571.335 463.62C572.535 475.274 574.406 491.901 574.544 503.426L563.405 503.555C563.399 492.752 562.145 477.94 561.592 466.824L558.324 400.479C557.74 390.149 556.121 372.883 556.37 363.256L557.598 362.384C556.987 361.511 557.389 361.892 556.324 361.316C555.733 357.813 555.561 348.401 555.393 344.477L553.957 313.874C552.666 288.58 550.218 261.718 549.39 236.661Z"/><path fill="white" transform="scale(1.00233 1.00233)" d="M536.836 215.458C539.309 218.822 545.209 264.061 545.426 272.075L545.29 271.939C545.996 279.491 546.593 287.054 547.082 294.623C542.62 292.795 537.978 290.562 533.575 288.539C530.834 287.264 524.04 284.47 521.916 282.32C521.541 281.94 522.091 280.459 522.271 279.717L521.665 279.588L520.687 281.479C519.208 281.326 516.858 279.492 515.424 278.559C517.488 270.624 520.956 260.896 523.537 252.995C527.624 240.483 531.895 227.634 536.836 215.458Z"/><path fill="#9B9B9E" transform="scale(1.00233 1.00233)" d="M535.897 219.305C536.378 219.622 536.086 219.385 536.625 220.17C536.178 225.877 534.171 237.047 532.216 242.581C531.384 241.13 534.565 230.597 534.744 227.648C534.873 225.53 535.545 221.535 535.897 219.305Z"/><path fill="white" transform="scale(1.00233 1.00233)" d="M563.455 211.869C569.812 222.434 580.92 244.267 586.217 255.31C585.589 256.198 585.799 255.722 585.555 256.722L586.88 257.265C587.572 258.411 587.602 258.347 587.829 259.648L587.008 259.219L586.278 258.17C586.092 258.791 585.901 259.35 585.692 259.964C584.168 260.486 578.435 260.94 576.484 261.134C572.553 242.944 567.851 229.282 563.455 211.869Z"/><path fill="#EEEFF0" transform="scale(1.00233 1.00233)" d="M549.893 286.143L550.562 285.987L550.991 286.455C551.367 305.825 553.234 328.987 554.169 348.725L558.949 472.661C559.06 476.297 560.571 501.82 559.237 503.461C558.078 486.652 557.92 471.055 557.439 454.251C557.072 441.418 556.188 428.004 555.594 415.114L552.066 333.401C551.367 317.909 550.233 301.534 549.893 286.143Z"/><path fill="#807F81" transform="scale(1.00233 1.00233)" d="M546.146 212.76C547.127 216.405 547.15 234.69 547.521 240.291C548.095 248.966 548.8 257.632 549.637 266.285C550.013 270.298 551.12 282.492 550.991 286.455L550.562 285.987L549.893 286.143C549.179 283.844 549.095 273.404 548.787 270.176C546.897 250.312 546.003 232.754 546.146 212.76Z"/><path fill="white" transform="scale(1.00233 1.00233)" d="M503.763 778.725C505.598 779.669 510.041 789.75 509.528 791.89L508.378 791.716C505.357 790.583 503.376 789.625 500.493 788.208C501.254 785.021 502.594 781.801 503.763 778.725Z"/><path fill="#2B2B2C" transform="scale(1.00233 1.00233)" d="M547.449 188.093L546.844 188.379L546.431 187.023C544.956 188.542 547.08 187.569 545.692 189.708C544.924 186.761 544.259 181.61 545.561 178.791L546.317 178.631L547.181 179.929C548.048 181.739 548.964 183.768 549.923 185.51C549.297 186.922 548.692 188.976 547.606 189.669L547.449 188.093Z"/><path fill="white" transform="scale(1.00233 1.00233)" d="M547.181 179.929C548.048 181.739 548.964 183.768 549.923 185.51C549.297 186.922 548.692 188.976 547.606 189.669L547.449 188.093C547.552 185.662 547.316 182.411 547.181 179.929Z"/><path fill="#414041" transform="scale(1.00233 1.00233)" d="M545.757 198.372L546.191 197.913C547.282 201.476 548.189 212.141 549.562 213.691C549.929 214.899 549.895 214.468 549.865 215.712C548.792 216.159 549.194 215.782 548.689 216.87L548.42 220.168C548.033 218.73 547.947 214.643 547.682 212.689C547.03 207.883 546.256 203.195 545.757 198.372Z"/><path fill="#9B9B9E" transform="scale(1.00233 1.00233)" d="M548.689 216.87C549.352 221.926 550.579 232.956 550.532 237.868L550.029 236.582L549.39 236.661C548.945 235.334 548.527 222.238 548.42 220.168L548.689 216.87Z"/><path fill="white" transform="scale(1.00233 1.00233)" d="M483.195 729.338C483.781 732.723 483.709 733.631 483.551 737.021C482.136 735.918 481.523 735.648 480.889 733.964C480.931 732.016 482.018 730.974 483.195 729.338Z"/><path fill="#414041" transform="scale(1.00233 1.00233)" d="M360.535 531.991C361.725 529.879 362.834 527.924 364.13 525.866L364.597 526.302C365.325 527.736 365.94 529.075 366.602 530.541L367.029 530.401C367.094 532.082 367.093 531.96 366.249 533.427L366.533 533.889C365.518 537.054 359.108 549.245 357.046 551.758C357.23 550.265 364.614 536.3 365.792 533.962L360.605 533.69C353.515 548.129 345.81 562.505 338.531 576.909L279.659 693.607L249.321 754.041C246.337 759.933 243.574 765.338 240.404 771.122C238.123 775.284 237.006 778.774 234.231 783.114C234.729 779.934 243.594 763.141 245.509 759.346C252.814 744.574 260.248 729.866 267.809 715.223L326.574 598.574C337.437 576.698 348.515 554.931 359.807 533.274C342.924 532.507 322.279 533.021 305.202 533.009L203.273 532.902C199.61 533.019 191.892 533.473 188.605 532.411C193.4 531.036 227.218 532.005 234.197 532.01L360.535 531.991Z"/><path fill="white" transform="scale(1.00233 1.00233)" d="M364.597 526.302C365.325 527.736 365.94 529.075 366.602 530.541C365.083 530.802 363.87 531.669 362.464 531.234C362.42 529.636 363.711 527.922 364.597 526.302Z"/><path fill="#807F81" transform="scale(1.00233 1.00233)" d="M188.605 532.411C192.564 532.407 199.631 532.21 203.273 532.902C199.61 533.019 191.892 533.473 188.605 532.411Z"/><path fill="#2B2B2C" transform="scale(1.00233 1.00233)" d="M535.226 184.905C536.192 182.358 539.498 177.155 541.014 174.858C541.182 175.946 541.495 177.469 541.461 178.518C540.357 180.404 535.172 190.076 534.34 191.118C533.823 193.061 531.652 196.282 530.918 198.331C526.784 209.858 518.228 219.292 512.973 229.699L456.002 342.397C448.899 356.333 441.929 370.336 435.092 384.404C429.655 395.325 424.033 406.067 419.053 417.207C418.497 413.946 416.719 409.79 415.525 406.568L419.516 413.326L485.905 281.321C497.017 258.869 508.404 236.555 520.062 214.382C525.24 204.419 529.393 194.664 535.226 184.905Z"/><path fill="#646466" transform="scale(1.00233 1.00233)" d="M535.226 184.905C536.192 182.358 539.498 177.155 541.014 174.858C541.182 175.946 541.495 177.469 541.461 178.518C540.357 180.404 535.172 190.076 534.34 191.118C532.948 191.541 533.096 194.251 530.369 196.238C531.281 192.528 534.845 188.679 535.226 184.905Z"/><path fill="#2B2B2C" transform="scale(1.00233 1.00233)" d="M684.787 499.811C690.788 485.71 699.978 468.958 706.915 455.006L757.409 354.376C770.385 328.126 783.536 301.961 796.859 275.885L808.182 253.432C810.316 249.191 813.189 243.043 815.687 239.17L816.373 239.049C815.683 241.522 809.758 252.466 808.13 255.675L788.698 294.212L715.499 439.808C709.624 451.8 703.661 463.748 697.61 475.652C694.028 482.701 687.721 494.362 685.148 501.572L685.056 503.142L684.659 503.034L684.454 502.155C683.519 500.69 680.852 498.654 679.443 497.464L680.288 496.915C682.411 497.663 683 498.348 684.787 499.811Z"/><path fill="#2B2B2C" transform="scale(1.00233 1.00233)" d="M371.982 544.28L373.108 544.499C370.329 551.191 363.693 562.872 360.135 569.611C353.936 581.618 347.82 593.668 341.787 605.759L272.958 743.703C269.524 750.528 244.23 801.897 242.938 802.969L242.755 802.528C244.665 797.301 249.997 787.348 252.766 781.796L275.639 736.465L341.606 604.158C347.408 592.514 353.272 580.901 359.197 569.318C363.37 561.237 368.234 552.482 371.982 544.28Z"/><path fill="#2B2B2C" transform="scale(1.00233 1.00233)" d="M673.703 491.371L771.059 291.592L791.242 250.789C792.313 248.647 796.718 239.178 797.849 237.741L798.263 237.989C790.303 255.78 779.893 275.713 771.165 293.325L731.108 375.241L698.804 442.226C691.597 457.411 682.847 476.738 674.853 491.5L673.703 491.371Z"/><path fill="#414041" transform="scale(1.00233 1.00233)" d="M525.427 823.23C527.262 825.409 533.095 837.783 534.727 841.156L551.817 876.64C568.078 910.317 584.799 943.968 601.279 977.549C601.929 978.872 603.001 981.18 603.21 982.584C600.282 978.815 597.377 971.698 595.109 967.177L579.912 936.237L551.637 878.664C542.867 860.172 533.925 841.761 524.813 823.435L525.427 823.23Z"/><path fill="#414041" transform="scale(1.00233 1.00233)" d="M668.416 533.089C668.828 532.414 669.105 531.66 669.425 530.921L669.606 531.614C677.497 531.322 696.499 531.269 704.228 531.907L790.942 531.977C795.891 531.98 821.625 531.645 824.125 532.4L823.832 532.831C812.878 533.571 794.86 533.024 783.295 533.013L705.385 532.924C697.993 532.922 690.601 532.881 683.209 532.801C679.274 532.766 672.056 532.522 668.416 533.089Z"/><path fill="#9B9B9E" transform="scale(1.00233 1.00233)" d="M669.606 531.614C677.497 531.322 696.499 531.269 704.228 531.907C700.239 532.265 672.578 532.359 669.606 531.614Z"/><path fill="#2B2B2C" transform="scale(1.00233 1.00233)" d="M521.281 853.182L560.941 933.933L574.913 962.211C578.048 968.506 582.274 976.33 584.666 982.77L584.086 982.86C579.364 974.148 575.218 964.937 570.841 956.013L545.744 905.029C539.444 892.489 533.269 879.887 527.22 867.224C525.175 862.964 521.965 857.687 520.414 853.523L521.281 853.182Z"/><path fill="#414041" transform="scale(1.00233 1.00233)" d="M544.536 164.505L544.828 164.024C549.431 156.309 556.59 139.789 560.739 131.103L594.871 60.1985C596.052 57.8066 602.529 44.2824 603.778 43.1438C604.278 44.3698 592.314 67.5501 590.583 71.0863L567.387 119.514L553.906 147.859C551.931 152.04 547.582 161.921 544.971 165.187L544.536 164.505Z"/><path fill="#414041" transform="scale(1.00233 1.00233)" d="M511.773 841.35L512.779 841.42C511.619 844.263 505.262 859.33 503.473 860.398C504.043 857.93 510.11 845.37 511.773 841.35Z"/><path fill="#807F81" transform="scale(1.00233 1.00233)" d="M474.982 754.889C473.385 758.218 472.206 761.056 469.883 763.937C471.394 760.127 472.704 758.032 473.932 753.965L474.133 753.281L475.008 753.005L474.787 752.453L474.321 752.524L474.706 752.266L474.587 751.979C475.712 754.396 476.81 756.826 477.88 759.268L477.174 760.401C476.566 759.367 475.464 756.172 474.982 754.889Z"/><path fill="#807F81" transform="scale(1.00233 1.00233)" d="M685.056 503.142L685.148 501.572C687.968 502.432 695.131 502.073 698.961 502.547L699.061 502.834C693.782 503.226 689.822 502.901 685.056 503.142Z"/><path fill="#414041" transform="scale(1.00233 1.00233)" d="M508.476 857.186C508.871 853.688 512.745 846.439 515.313 843.864C514.297 846.659 510.152 854.986 508.476 857.186Z"/><path fill="#646466" transform="scale(1.00233 1.00233)" d="M680.334 516.436C683.711 515.86 689.129 515.65 692.426 516.433L691.837 516.91C688.556 517.295 682.479 517.225 679.178 516.766L680.334 516.436Z"/><path fill="#9B9B9E" transform="scale(1.00233 1.00233)" d="M680.334 516.436C683.711 515.86 689.129 515.65 692.426 516.433C688.396 516.506 684.365 516.508 680.334 516.436Z"/><path fill="#414041" transform="scale(1.00233 1.00233)" d="M530.054 152.268C531.892 153.451 535.925 162.519 537.353 165.19C534.112 163.206 531.795 156.137 530.054 152.268Z"/><path fill="#646466" transform="scale(1.00233 1.00233)" d="M720.596 516.469C723.525 515.827 728.431 515.592 731.27 516.505L730.894 516.92C728.75 517.347 722.841 517.136 720.463 516.981L720.596 516.469Z"/><path fill="#9B9B9E" transform="scale(1.00233 1.00233)" d="M720.596 516.469C723.525 515.827 728.431 515.592 731.27 516.505L720.596 516.469Z"/><path fill="#414041" transform="scale(1.00233 1.00233)" d="M502.989 75.881C505.057 77.3071 508.525 85.6486 509.603 88.1605C507.663 87.1337 503.896 78.2645 502.989 75.881Z"/><path fill="#9B9B9E" transform="scale(1.00233 1.00233)" d="M322.305 516.265C325.696 516.023 327.196 515.827 330.567 516.307L330.716 516.915L329.623 517.053C326.713 517.214 324.462 517.397 321.53 517.108L321.283 516.582L322.305 516.265Z"/><path fill="#646466" transform="scale(1.00233 1.00233)" d="M511.493 93.4234C513.459 95.2141 516.583 102.933 517.545 105.631C515.576 104.009 512.147 96.0378 511.493 93.4234Z"/><path fill="#414041" transform="scale(1.00233 1.00233)" d="M519.524 110.432C521.512 112.442 524.559 119.774 525.549 122.618C523.652 121.276 520.128 112.867 519.524 110.432Z"/><path fill="#414041" transform="scale(1.00233 1.00233)" d="M663.93 547.376C665.176 548.651 669.124 556.582 670.245 558.757C667.716 557.802 664.595 549.959 663.93 547.376Z"/><path fill="#807F81" transform="scale(1.00233 1.00233)" d="M700.794 516.741C703.631 516.28 709.915 515.775 712.392 517.227C709.147 517.427 703.678 518.004 700.794 516.741Z"/><path fill="#807F81" transform="scale(1.00233 1.00233)" d="M301.062 516.765C303.965 516.333 310.161 515.723 312.749 516.877C309.116 517.386 304.529 518.027 301.062 516.765Z"/><path fill="#646466" transform="scale(1.00233 1.00233)" d="M282.018 516.573C284.885 515.705 290.099 515.7 292.918 516.425L292.335 516.879C289.261 517.262 285.045 517.283 282.018 516.573Z"/><path fill="#9B9B9E" transform="scale(1.00233 1.00233)" d="M282.018 516.573C284.885 515.705 290.099 515.7 292.918 516.425L282.018 516.573Z"/><path fill="#414041" transform="scale(1.00233 1.00233)" d="M667.241 534.963L667.816 534.031C669.421 537.558 671.723 541.324 672.857 544.795C670.612 542.125 668.805 538.137 667.241 534.963Z"/><path fill="#414041" transform="scale(1.00233 1.00233)" d="M535.035 142.402C536.585 145.061 538.992 150.318 539.773 153.275L539.086 153.328C537.571 150.333 535.515 145.658 535.035 142.402Z"/><path fill="#414041" transform="scale(1.00233 1.00233)" d="M495.129 59.2853C497.316 60.5824 500.342 68.1001 501.06 70.6121C499.067 68.6856 496.425 62.1904 495.129 59.2853Z"/><path fill="#9B9B9E" transform="scale(1.00233 1.00233)" d="M758.548 516.753C761.788 516.322 767.298 515.749 770.2 517.251C766.788 517.43 761.674 517.894 758.548 516.753Z"/><path fill="#414041" transform="scale(1.00233 1.00233)" d="M527.279 127.333C529.455 128.87 532.223 135.957 533.29 138.672C531.031 136.672 528.613 130.383 527.279 127.333Z"/><path fill="#646466" transform="scale(1.00233 1.00233)" d="M675.891 550.846C677.245 551.912 680.209 559.147 681.134 561.208C678.508 559.917 676.693 553.65 675.891 550.846Z"/><path fill="#807F81" transform="scale(1.00233 1.00233)" d="M762.482 727.89C764.351 729.003 766.944 735.511 767.931 737.727C765.659 736.581 763.31 730.314 762.482 727.89Z"/><path fill="#414041" transform="scale(1.00233 1.00233)" d="M270.331 103.862C272.292 106.289 274.551 111.698 275.939 114.752C273.678 113.427 270.934 106.461 270.331 103.862Z"/><path fill="#646466" transform="scale(1.00233 1.00233)" d="M435.345 673.35C436.967 674.824 440.162 682.129 441.329 684.588C438.96 683.301 436.334 676.078 435.345 673.35Z"/><path fill="#807F81" transform="scale(1.00233 1.00233)" d="M244.585 516.25C247.507 516.067 252.663 515.289 254.716 517.04C252.557 517.091 245.878 517.657 244.585 516.25Z"/><path fill="#807F81" transform="scale(1.00233 1.00233)" d="M778.748 516.258C781.729 516.058 786.801 515.377 789.171 516.935C785.493 517.092 782.917 517.202 779.26 516.953L778.748 516.258Z"/><path fill="#646466" transform="scale(1.00233 1.00233)" d="M727.302 677.297C729.469 678.471 732.217 685.037 732.546 687.595C730.8 685.32 728.587 680.125 727.302 677.297Z"/><path fill="#646466" transform="scale(1.00233 1.00233)" d="M331.558 232.758C333.803 233.973 336.193 240.632 337.105 243.159C335.411 242.024 332.55 234.96 331.558 232.758Z"/><path fill="#646466" transform="scale(1.00233 1.00233)" d="M754.455 711.78C756.466 712.781 759.011 719.882 759.964 722.16C757.969 721.073 755.509 714.263 754.455 711.78Z"/><path fill="#414041" transform="scale(1.00233 1.00233)" d="M400.503 374.928C402.487 376.999 404.731 382.962 405.815 385.696C403.788 384.418 401.136 377.331 400.503 374.928Z"/><path fill="#646466" transform="scale(1.00233 1.00233)" d="M269.17 516.218C271.143 516.159 271.396 516.108 273.271 516.592C271.801 517.339 270.668 517.111 268.872 517.152C267.155 517.265 265.273 517.572 263.726 516.966C265.276 516.169 267.359 516.285 269.17 516.218Z"/><path fill="#414041" transform="scale(1.00233 1.00233)" d="M403.828 404.798C405.85 405.801 408.415 412.485 409.419 414.717C407.128 413.151 404.943 407.426 403.828 404.798Z"/><path fill="#414041" transform="scale(1.00233 1.00233)" d="M691.294 583.352C693.229 584.843 695.958 591.168 696.651 593.618C694.79 591.966 692.142 585.856 691.294 583.352Z"/><path fill="#414041" transform="scale(1.00233 1.00233)" d="M258.341 101.853C259.718 103.105 262.516 109.578 263.5 111.672C261.282 110.825 258.773 104.246 258.341 101.853Z"/><path fill="#414041" transform="scale(1.00233 1.00233)" d="M586.255 708.881L586.709 709.428C586.183 712.044 584.389 715.618 583.235 718.18L582.7 717.581C583.18 715.316 585.229 711.149 586.255 708.881Z"/><path fill="#414041" transform="scale(1.00233 1.00233)" d="M514.732 120.325C516.749 122.213 519.458 128.438 520.453 131.125C518.28 129.785 515.735 122.794 514.732 120.325Z"/><path fill="#414041" transform="scale(1.00233 1.00233)" d="M408.179 391.308C410.345 393.121 412.364 398.432 413.133 401.13C411.15 399.557 409.145 393.849 408.179 391.308Z"/><path fill="#646466" transform="scale(1.00233 1.00233)" d="M395.92 388.348C397.998 389.682 400.322 395.72 401.261 398.17C399.246 396.789 396.896 390.719 395.92 388.348Z"/><path fill="#414041" transform="scale(1.00233 1.00233)" d="M499.821 89.3325C501.703 91.058 503.838 96.3101 504.819 98.7892L504.37 98.9108C502.87 97.2023 500.661 91.6157 499.821 89.3325Z"/><path fill="#414041" transform="scale(1.00233 1.00233)" d="M346.855 264.764C349.284 265.99 351.188 271.917 352.204 274.675C350.614 273.606 347.803 266.837 346.855 264.764Z"/><path fill="#414041" transform="scale(1.00233 1.00233)" d="M672.316 565.279C674.44 566.59 676.744 572.271 677.93 574.723C675.507 573.351 673.481 567.886 672.316 565.279Z"/><path fill="#414041" transform="scale(1.00233 1.00233)" d="M696.273 613.33C697.899 614.622 700.419 620.923 701.471 623.256C699.292 622.139 697.024 615.688 696.273 613.33Z"/><path fill="#646466" transform="scale(1.00233 1.00233)" d="M370.02 312.349C372.317 313.613 374.398 320.15 375.325 322.72C373.55 321.153 371.094 314.844 370.02 312.349Z"/><path fill="#646466" transform="scale(1.00233 1.00233)" d="M357.233 308.792C359.354 310.403 361.495 316.147 362.53 318.698C360.521 317.693 358.16 311.039 357.233 308.792Z"/><path fill="#414041" transform="scale(1.00233 1.00233)" d="M638.638 602.35L639.146 602.81C638.384 605.561 636.838 608.333 635.551 610.922L635.033 610.263C635.655 607.923 637.502 604.608 638.638 602.35Z"/><path fill="#414041" transform="scale(1.00233 1.00233)" d="M393.025 359.421C394.563 361.008 396.915 366.89 397.764 369.17C395.554 367.557 393.499 362.113 393.025 359.421Z"/><path fill="#414041" transform="scale(1.00233 1.00233)" d="M507.534 104.941C509.369 106.86 511.563 112.183 512.709 114.739C510.438 113.797 508.348 107.383 507.534 104.941Z"/><path fill="#414041" transform="scale(1.00233 1.00233)" d="M421.193 837.364C421.536 839.463 418.239 844.893 417.045 847.169L416.798 846.325C417.786 843.2 419.598 840.248 421.193 837.364Z"/><path fill="#2B2B2C" transform="scale(1.00233 1.00233)" d="M608.974 663.383C609.543 665.756 606.78 670.031 605.53 672.265C605.059 669.993 607.768 665.605 608.974 663.383Z"/><path fill="#414041" transform="scale(1.00233 1.00233)" d="M372.31 339.835C374.566 341.863 376.697 347.253 377.681 350.141C375.597 348.393 373.486 342.62 372.31 339.835Z"/><path fill="#414041" transform="scale(1.00233 1.00233)" d="M339.015 248.764C341.442 250.138 343.546 255.51 344.73 258.159C342.54 256.546 340.298 251.332 339.015 248.764Z"/><path fill="#646466" transform="scale(1.00233 1.00233)" d="M324.526 218.258L325.104 218.185C326.474 220.035 328.37 224.458 329.438 226.757C327.263 225.289 325.484 220.693 324.526 218.258Z"/><path fill="#646466" transform="scale(1.00233 1.00233)" d="M326.989 245.342C329 246.268 331.445 252.912 332.047 255.085C330.221 253.539 328.04 247.769 326.989 245.342Z"/><path fill="#414041" transform="scale(1.00233 1.00233)" d="M492.357 73.8535C494.263 75.3625 496.845 81.777 497.942 84.2402C495.725 82.9597 493.411 76.3779 492.357 73.8535Z"/><path fill="#414041" transform="scale(1.00233 1.00233)" d="M450.492 704.911C452.524 706.693 454.561 711.969 455.789 714.71C453.146 712.902 451.676 707.974 450.492 704.911Z"/><path fill="#414041" transform="scale(1.00233 1.00233)" d="M334.734 261.31C336.594 262.494 338.843 268.973 339.669 271.165C337.792 270.199 335.491 263.394 334.734 261.31Z"/><path fill="#646466" transform="scale(1.00233 1.00233)" d="M308.946 184.9C310.605 186.467 313.168 192.777 313.981 195.082C312.059 193.885 309.526 187.159 308.946 184.9Z"/><path fill="#414041" transform="scale(1.00233 1.00233)" d="M365.142 324.793C366.985 326.805 369.43 331.79 369.968 334.555C368.042 332.793 365.902 327.299 365.142 324.793Z"/><path fill="#414041" transform="scale(1.00233 1.00233)" d="M719.993 660.905C721.298 662.114 723.782 668.593 724.653 670.68C722.504 669.581 720.459 663.256 719.993 660.905Z"/><path fill="#646466" transform="scale(1.00233 1.00233)" d="M296.352 181.365C298.293 183.091 300.404 188.702 301.474 191.256C299.19 189.296 297.231 184.242 296.352 181.365Z"/><path fill="#646466" transform="scale(1.00233 1.00233)" d="M356.807 490.312C359.163 491.708 361.225 498.014 362.015 500.601C360.406 498.942 357.898 492.769 356.807 490.312Z"/><path fill="#414041" transform="scale(1.00233 1.00233)" d="M722.985 647.41C724.735 649.076 726.989 654.802 727.707 657.148C725.714 655.556 723.649 649.908 722.985 647.41Z"/><path fill="#807F81" transform="scale(1.00233 1.00233)" d="M204.676 516.772C207.62 516.242 213.503 515.7 216.23 516.99C213.613 517.078 206.685 517.621 204.676 516.772Z"/><path fill="#414041" transform="scale(1.00233 1.00233)" d="M388.307 372.35C390.151 373.925 392.572 379.604 393.056 382.099C391.304 380.131 389.075 374.88 388.307 372.35Z"/><path fill="#414041" transform="scale(1.00233 1.00233)" d="M280.975 149.888C283.086 151.533 285.086 157.054 286.093 159.633C284.222 158.213 281.893 152.26 280.975 149.888Z"/><path fill="#807F81" transform="scale(1.00233 1.00233)" d="M341.403 516.234C344.031 516.072 346.592 515.758 349.167 516.202L349.27 516.997C346.472 517.068 344.068 517.225 341.283 516.851L341.403 516.234Z"/><path fill="#414041" transform="scale(1.00233 1.00233)" d="M306.314 885.922L306.723 886.678C305.824 889.58 304.543 891.678 303.105 894.34L302.725 894.036C303.087 892.078 305.316 887.938 306.314 885.922Z"/><path fill="#414041" transform="scale(1.00233 1.00233)" d="M273.52 134.324C275.505 135.587 277.411 140.862 278.09 143.118C276.275 141.745 274.477 136.618 273.52 134.324Z"/><path fill="#414041" transform="scale(1.00233 1.00233)" d="M478.918 44.8658C480.475 46.047 482.153 50.6775 483.027 52.6954C480.639 51.5005 479.689 47.3786 478.918 44.8658Z"/><path fill="#2B2B2C" transform="scale(1.00233 1.00233)" d="M722.97 502.223C725.295 501.951 727.39 501.43 729.206 502.974C728.424 503.045 727.642 503.105 726.859 503.154C724.954 503.256 724.177 503.341 722.97 502.223Z"/></svg>